<svg xmlns="http://www.w3.org/2000/svg" width="1200" height="700" viewBox="0 0 1200 700">
  <rect width="1200" height="700" fill="#0f172a"/>
  <rect x="40" y="40" width="1120" height="620" rx="14" fill="#f8fafc"/>
  <rect x="40" y="40" width="1120" height="64" rx="14" fill="#1e293b"/>
  <text x="70" y="80" fill="#f1f5f9" font-size="28" font-family="sans-serif" font-weight="700">Shelfy</text>
  <text x="1010" y="80" fill="#cbd5e1" font-size="18" font-family="sans-serif">admin@example.com</text>

  <rect x="80" y="140" width="1020" height="72" rx="12" fill="#e2e8f0"/>
  <text x="110" y="184" fill="#334155" font-size="24" font-family="sans-serif">Search books, ISBNs, or authors...</text>

  <rect x="80" y="240" width="300" height="180" rx="12" fill="#dbeafe"/>
  <rect x="400" y="240" width="300" height="180" rx="12" fill="#dcfce7"/>
  <rect x="720" y="240" width="380" height="180" rx="12" fill="#fff7ed"/>

  <text x="104" y="286" fill="#1e293b" font-size="22" font-family="sans-serif" font-weight="700">Total books</text>
  <text x="104" y="350" fill="#1d4ed8" font-size="56" font-family="sans-serif" font-weight="700">128</text>

  <text x="424" y="286" fill="#1e293b" font-size="22" font-family="sans-serif" font-weight="700">Locations</text>
  <text x="424" y="350" fill="#15803d" font-size="56" font-family="sans-serif" font-weight="700">14</text>

  <text x="744" y="286" fill="#1e293b" font-size="22" font-family="sans-serif" font-weight="700">Pending enrichments</text>
  <text x="744" y="350" fill="#c2410c" font-size="56" font-family="sans-serif" font-weight="700">3</text>

  <rect x="80" y="450" width="1020" height="170" rx="12" fill="#e2e8f0"/>
  <text x="110" y="494" fill="#0f172a" font-size="24" font-family="sans-serif" font-weight="700">Recent books</text>
  <text x="110" y="536" fill="#334155" font-size="20" font-family="sans-serif">• Clean Architecture — Office / Bookshelf A</text>
  <text x="110" y="568" fill="#334155" font-size="20" font-family="sans-serif">• Refactoring — Living Room / Shelf 2</text>
  <text x="110" y="600" fill="#334155" font-size="20" font-family="sans-serif">• Domain-Driven Design — Office / Desk</text>
</svg>
